# xmcd
#
# Track frame offsets: 
#        150
#        15027
#        35817
#        51980
#        70873
#        86340
#        103825
#        120460
#        139300
#        167993
#        183905
#
# Disc length: 2690 seconds
#
# Revision: 0
# Processed by: cddbd v1.5.2PL0 Copyright (c) Steve Scherf et al.
# Submitted via: ExactAudioCopyFreeDBPlugin 1.0
#
DISCID=900a800b
DTITLE=Brian McKnight - ICON Christmas
DYEAR=2016
DGENRE=R&B
TTITLE0=Home For The Holidays
TTITLE1=The Christmas Song
TTITLE2=The First Noel (featuringClaude McKnight and Tim Miner)
TTITLE3=Let It Snow (Boyz 2 Men featuring Brian McKnight)
TTITLE4=Christmas Time Is Here
TTITLE5=God Rest Ye Merry Gentlemen
TTITLE6=Silver Bells
TTITLE7=Don't Let Me Go
TTITLE8=Christmas Eve With You (featuring Dave Koz and Julie McKnight)
TTITLE9=Bethlehem Tonight (featuring Michael Sembello)
TTITLE10=Have Yourself A Merry Little Christmas
EXTD=
EXTT0=
EXTT1=
EXTT2=
EXTT3=
EXTT4=
EXTT5=
EXTT6=
EXTT7=
EXTT8=
EXTT9=
EXTT10=
PLAYORDER=
